<?xml version="1.0" encoding="utf-8"?>
<!-- Generator: Adobe Illustrator 26.3.1, SVG Export Plug-In . SVG Version: 6.00 Build 0)  -->
<svg version="1.1" id="Layer_1" xmlns="http://www.w3.org/2000/svg" xmlns:xlink="http://www.w3.org/1999/xlink" x="0px" y="0px"
	 viewBox="0 0 110 85" style="enable-background:new 0 0 110 85;" xml:space="preserve">
<style type="text/css">
	.st0{fill:#FFB300;}
</style>
<path class="st0" d="M97,0.4c2.2,0,4.1,1.1,5.2,3.1c1.8,3,1,6.4-2,8.3c-0.9,0.6-1.8,1.2-2.8,1.7c-2.3,1.4-4.5,2.8-6.5,4.5
	c-5.6,4.8-9.6,10.1-12.1,16.2l-0.2,0.3c0.1,0,0.1,0,0.2,0h0.1c7.7-1.4,15.4,0.5,21.1,5.3c5.8,4.7,9.1,11.8,9.1,19.5
	c0,12.5-8.6,22.7-21,24.9C75.8,86,63.8,78.6,60.3,66.8c-5-17-1.6-32.6,10-46.4c6.2-7.3,13.2-13.3,20.8-17.8l0.6-0.4
	c0.7-0.4,1.6-0.9,2.5-1.3C95.1,0.6,96.1,0.4,97,0.4z M76.6,33.2c2.7-6.4,6.8-12,12.7-17c2.1-1.8,4.5-3.3,6.8-4.8
	c0.9-0.6,1.8-1.1,2.7-1.7c1.9-1.2,2.3-3.1,1.2-5c-0.9-1.7-2.9-2.2-4.8-1.4c-0.8,0.4-1.6,0.8-2.3,1.2l-0.6,0.3
	C85,9.1,78.2,14.9,72.3,22c-11,13.1-14.3,27.9-9.6,44c3.2,10.6,13.9,17.3,25,15.7c11.2-1.9,18.9-11.1,18.9-22.4
	c0-6.9-3-13.4-8.2-17.6c-5.2-4.3-12.1-6-19-4.8c-0.1,0-0.2,0.1-0.3,0.1c-0.5,0.2-2,0.7-2.9-0.6C75.6,35.5,75.7,34.4,76.6,33.2z
	 M39.8,0.4c2.2,0,4.1,1.1,5.2,3.1c1.7,3,0.9,6.4-2,8.3c-0.9,0.6-1.8,1.2-2.8,1.7c-2.3,1.4-4.5,2.8-6.5,4.5
	c-5.6,4.9-9.5,10.2-12,16.3l-0.2,0.3c0.1,0,0.1,0,0.2,0h0.1c7.5-1.4,15.1,0.5,20.8,5.2c5.8,4.7,9.2,11.9,9.4,19.6
	c0,12.6-8.7,22.8-21,24.9C18.7,86.1,6.7,78.7,3.2,66.9c-5-16.9-1.7-32.5,9.9-46.4c6.5-7.6,13.3-13.4,20.8-17.8l0.6-0.3
	C35.2,2,36.1,1.5,37,1.1C37.9,0.6,38.9,0.4,39.8,0.4z M19.4,33.2c2.7-6.4,6.8-12,12.7-17c2.1-1.8,4.5-3.3,6.8-4.8
	c0.9-0.6,1.8-1.1,2.7-1.7c1.9-1.2,2.3-3.1,1.2-5C41.9,3,39.9,2.5,38,3.3c-0.8,0.4-1.6,0.8-2.3,1.2l-0.6,0.3
	C27.8,9,21.2,14.7,14.9,22C3.8,35.1,0.7,49.9,5.4,66c3.2,10.5,13.9,17.3,25,15.6c11.1-1.8,18.9-11,18.9-22.4
	c-0.1-7-3.2-13.5-8.4-17.7c-5.2-4.3-11.9-5.9-18.7-4.6c-0.1,0-0.2,0.1-0.3,0.1c-0.5,0.2-2,0.7-2.9-0.6
	C18.4,35.5,18.5,34.4,19.4,33.2z"/>
</svg>
